<mxfile host="Electron" agent="Mozilla/5.0 (Windows NT 10.0; Win64; x64) AppleWebKit/537.36 (KHTML, like Gecko) draw.io/27.0.9 Chrome/134.0.6998.205 Electron/35.4.0 Safari/537.36" version="27.0.9">
  <diagram name="第 1 页" id="GB1xUkGNx0EfG39duT8A">
    <mxGraphModel dx="2066" dy="1201" grid="1" gridSize="10" guides="1" tooltips="1" connect="1" arrows="1" fold="1" page="1" pageScale="1" pageWidth="1169" pageHeight="1654" math="0" shadow="0">
      <root>
        <mxCell id="0" />
        <mxCell id="1" parent="0" />
        <mxCell id="GKl5spMRml193SK381mk-1" value="&lt;h1&gt;&lt;span style=&quot;font-size: 20px;&quot;&gt;内核源码&lt;br&gt;目录结构&lt;/span&gt;&lt;/h1&gt;" style="ellipse;whiteSpace=wrap;html=1;fillColor=#1ba1e2;strokeColor=#006EAF;fontColor=#ffffff;fontStyle=1" parent="1" vertex="1">
          <mxGeometry x="48.33" y="690" width="151.67" height="70" as="geometry" />
        </mxCell>
        <mxCell id="GKl5spMRml193SK381mk-23" value="&lt;font style=&quot;font-size: 18px;&quot;&gt;&lt;b&gt;arch&lt;/b&gt;&lt;/font&gt;" style="shape=umlFrame;whiteSpace=wrap;html=1;pointerEvents=0;recursiveResize=0;container=1;collapsible=0;width=95;fillColor=#dae8fc;strokeColor=#6c8ebf;height=30;" parent="1" vertex="1">
          <mxGeometry x="230" y="260" width="540" height="30" as="geometry" />
        </mxCell>
        <mxCell id="GKl5spMRml193SK381mk-3" value="&lt;b&gt;存放不同平台的相关代码：&lt;/b&gt;同CPU架构（如ARM、x86）的专用代码" style="text;html=1;align=left;verticalAlign=middle;whiteSpace=wrap;rounded=0;fillColor=none;strokeColor=none;dashed=1;fontSize=14;" parent="GKl5spMRml193SK381mk-23" vertex="1">
          <mxGeometry x="100" width="440" height="30" as="geometry" />
        </mxCell>
        <mxCell id="GKl5spMRml193SK381mk-55" value="&lt;font style=&quot;font-size: 18px;&quot;&gt;&lt;b&gt;block&lt;/b&gt;&lt;/font&gt;" style="shape=umlFrame;whiteSpace=wrap;html=1;pointerEvents=0;recursiveResize=0;container=1;collapsible=0;width=95;fillColor=#dae8fc;strokeColor=#6c8ebf;height=30;" parent="1" vertex="1">
          <mxGeometry x="230" y="305" width="540" height="30" as="geometry" />
        </mxCell>
        <mxCell id="GKl5spMRml193SK381mk-56" value="&lt;b&gt;存放块设备相关代码：&lt;/b&gt;硬盘、U盘等存储设备的控制代码" style="text;html=1;align=left;verticalAlign=middle;whiteSpace=wrap;rounded=0;fillColor=none;strokeColor=none;dashed=1;fontSize=14;" parent="GKl5spMRml193SK381mk-55" vertex="1">
          <mxGeometry x="100" width="440" height="30" as="geometry" />
        </mxCell>
        <mxCell id="GKl5spMRml193SK381mk-57" value="&lt;font style=&quot;font-size: 18px;&quot;&gt;&lt;b&gt;crypto&lt;/b&gt;&lt;/font&gt;" style="shape=umlFrame;whiteSpace=wrap;html=1;pointerEvents=0;recursiveResize=0;container=1;collapsible=0;width=95;fillColor=#dae8fc;strokeColor=#6c8ebf;height=30;" parent="1" vertex="1">
          <mxGeometry x="230" y="350" width="540" height="30" as="geometry" />
        </mxCell>
        <mxCell id="GKl5spMRml193SK381mk-58" value="&lt;b&gt;存放加密、压缩、CRC等算法相关代码&lt;/b&gt;" style="text;html=1;align=left;verticalAlign=middle;whiteSpace=wrap;rounded=0;fillColor=none;strokeColor=none;dashed=1;fontSize=14;" parent="GKl5spMRml193SK381mk-57" vertex="1">
          <mxGeometry x="100" width="440" height="30" as="geometry" />
        </mxCell>
        <mxCell id="GKl5spMRml193SK381mk-59" value="&lt;font style=&quot;font-size: 18px;&quot;&gt;&lt;b&gt;Documentation&lt;/b&gt;&lt;/font&gt;" style="shape=umlFrame;whiteSpace=wrap;html=1;pointerEvents=0;recursiveResize=0;container=1;collapsible=0;width=180;fillColor=#dae8fc;strokeColor=#6c8ebf;height=30;" parent="1" vertex="1">
          <mxGeometry x="230" y="395" width="540" height="30" as="geometry" />
        </mxCell>
        <mxCell id="GKl5spMRml193SK381mk-60" value="&lt;b&gt;存放相关说明文档&lt;/b&gt;" style="text;html=1;align=left;verticalAlign=middle;whiteSpace=wrap;rounded=0;fillColor=none;strokeColor=none;dashed=1;fontSize=14;" parent="GKl5spMRml193SK381mk-59" vertex="1">
          <mxGeometry x="180" width="360" height="30" as="geometry" />
        </mxCell>
        <mxCell id="GKl5spMRml193SK381mk-61" value="&lt;font style=&quot;font-size: 18px;&quot;&gt;&lt;b&gt;drivers&lt;/b&gt;&lt;/font&gt;" style="shape=umlFrame;whiteSpace=wrap;html=1;pointerEvents=0;recursiveResize=0;container=1;collapsible=0;width=95;fillColor=#dae8fc;strokeColor=#6c8ebf;height=30;" parent="1" vertex="1">
          <mxGeometry x="230" y="440" width="540" height="30" as="geometry" />
        </mxCell>
        <mxCell id="GKl5spMRml193SK381mk-62" value="&lt;b&gt;存放Linux内核设备驱动程序源码&lt;/b&gt;" style="text;html=1;align=left;verticalAlign=middle;whiteSpace=wrap;rounded=0;fillColor=none;strokeColor=none;dashed=1;fontSize=14;" parent="GKl5spMRml193SK381mk-61" vertex="1">
          <mxGeometry x="100" width="440" height="30" as="geometry" />
        </mxCell>
        <mxCell id="GKl5spMRml193SK381mk-63" value="&lt;font style=&quot;font-size: 18px;&quot;&gt;&lt;b&gt;firmware&lt;/b&gt;&lt;/font&gt;" style="shape=umlFrame;whiteSpace=wrap;html=1;pointerEvents=0;recursiveResize=0;container=1;collapsible=0;width=95;fillColor=#dae8fc;strokeColor=#6c8ebf;height=30;" parent="1" vertex="1">
          <mxGeometry x="230" y="485" width="540" height="30" as="geometry" />
        </mxCell>
        <mxCell id="GKl5spMRml193SK381mk-64" value="&lt;b&gt;存放处理相关的一些特殊固件&lt;/b&gt;" style="text;html=1;align=left;verticalAlign=middle;whiteSpace=wrap;rounded=0;fillColor=none;strokeColor=none;dashed=1;fontSize=14;" parent="GKl5spMRml193SK381mk-63" vertex="1">
          <mxGeometry x="100" width="440" height="30" as="geometry" />
        </mxCell>
        <mxCell id="GKl5spMRml193SK381mk-65" value="&lt;font style=&quot;font-size: 18px;&quot;&gt;&lt;b&gt;fs&lt;/b&gt;&lt;/font&gt;" style="shape=umlFrame;whiteSpace=wrap;html=1;pointerEvents=0;recursiveResize=0;container=1;collapsible=0;width=95;fillColor=#dae8fc;strokeColor=#6c8ebf;height=30;" parent="1" vertex="1">
          <mxGeometry x="230" y="530" width="540" height="30" as="geometry" />
        </mxCell>
        <mxCell id="GKl5spMRml193SK381mk-66" value="&lt;b&gt;存放虚拟文件系统代码&lt;/b&gt;" style="text;html=1;align=left;verticalAlign=middle;whiteSpace=wrap;rounded=0;fillColor=none;strokeColor=none;dashed=1;fontSize=14;" parent="GKl5spMRml193SK381mk-65" vertex="1">
          <mxGeometry x="100" width="440" height="30" as="geometry" />
        </mxCell>
        <mxCell id="GKl5spMRml193SK381mk-67" value="&lt;font style=&quot;font-size: 18px;&quot;&gt;&lt;b&gt;include&lt;/b&gt;&lt;/font&gt;" style="shape=umlFrame;whiteSpace=wrap;html=1;pointerEvents=0;recursiveResize=0;container=1;collapsible=0;width=95;fillColor=#dae8fc;strokeColor=#6c8ebf;height=30;" parent="1" vertex="1">
          <mxGeometry x="230" y="575" width="540" height="30" as="geometry" />
        </mxCell>
        <mxCell id="GKl5spMRml193SK381mk-68" value="&lt;b&gt;存放内核所需、与平台无关的头文件&lt;/b&gt;" style="text;html=1;align=left;verticalAlign=middle;whiteSpace=wrap;rounded=0;fillColor=none;strokeColor=none;dashed=1;fontSize=14;" parent="GKl5spMRml193SK381mk-67" vertex="1">
          <mxGeometry x="100" width="440" height="30" as="geometry" />
        </mxCell>
        <mxCell id="GKl5spMRml193SK381mk-69" value="&lt;font style=&quot;font-size: 18px;&quot;&gt;&lt;b&gt;init&lt;/b&gt;&lt;/font&gt;" style="shape=umlFrame;whiteSpace=wrap;html=1;pointerEvents=0;recursiveResize=0;container=1;collapsible=0;width=95;fillColor=#dae8fc;strokeColor=#6c8ebf;height=30;" parent="1" vertex="1">
          <mxGeometry x="230" y="620" width="540" height="30" as="geometry" />
        </mxCell>
        <mxCell id="GKl5spMRml193SK381mk-70" value="&lt;b&gt;Linux系统启动初始化相关的代码：&lt;/b&gt;开机最先运行的代码" style="text;html=1;align=left;verticalAlign=middle;whiteSpace=wrap;rounded=0;fillColor=none;strokeColor=none;dashed=1;fontSize=14;" parent="GKl5spMRml193SK381mk-69" vertex="1">
          <mxGeometry x="100" width="440" height="30" as="geometry" />
        </mxCell>
        <mxCell id="GKl5spMRml193SK381mk-71" value="&lt;font style=&quot;font-size: 18px;&quot;&gt;&lt;b&gt;ipc&lt;/b&gt;&lt;/font&gt;" style="shape=umlFrame;whiteSpace=wrap;html=1;pointerEvents=0;recursiveResize=0;container=1;collapsible=0;width=95;fillColor=#dae8fc;strokeColor=#6c8ebf;height=30;" parent="1" vertex="1">
          <mxGeometry x="230" y="665" width="540" height="30" as="geometry" />
        </mxCell>
        <mxCell id="GKl5spMRml193SK381mk-72" value="&lt;b&gt;存放进程间通信代码&lt;/b&gt;" style="text;html=1;align=left;verticalAlign=middle;whiteSpace=wrap;rounded=0;fillColor=none;strokeColor=none;dashed=1;fontSize=14;" parent="GKl5spMRml193SK381mk-71" vertex="1">
          <mxGeometry x="100" width="440" height="30" as="geometry" />
        </mxCell>
        <mxCell id="GKl5spMRml193SK381mk-73" value="&lt;font style=&quot;font-size: 18px;&quot;&gt;&lt;b&gt;kernel&lt;/b&gt;&lt;/font&gt;" style="shape=umlFrame;whiteSpace=wrap;html=1;pointerEvents=0;recursiveResize=0;container=1;collapsible=0;width=95;fillColor=#dae8fc;strokeColor=#6c8ebf;height=30;" parent="1" vertex="1">
          <mxGeometry x="230" y="710" width="540" height="30" as="geometry" />
        </mxCell>
        <mxCell id="GKl5spMRml193SK381mk-74" value="&lt;b&gt;Linux内核的核心代码&lt;/b&gt;" style="text;html=1;align=left;verticalAlign=middle;whiteSpace=wrap;rounded=0;fillColor=none;strokeColor=none;dashed=1;fontSize=14;" parent="GKl5spMRml193SK381mk-73" vertex="1">
          <mxGeometry x="100" width="440" height="30" as="geometry" />
        </mxCell>
        <mxCell id="GKl5spMRml193SK381mk-75" value="&lt;font style=&quot;font-size: 18px;&quot;&gt;&lt;b&gt;lib&lt;/b&gt;&lt;/font&gt;" style="shape=umlFrame;whiteSpace=wrap;html=1;pointerEvents=0;recursiveResize=0;container=1;collapsible=0;width=95;fillColor=#dae8fc;strokeColor=#6c8ebf;height=30;" parent="1" vertex="1">
          <mxGeometry x="230" y="755" width="540" height="30" as="geometry" />
        </mxCell>
        <mxCell id="GKl5spMRml193SK381mk-76" value="&lt;b&gt;库文件代码：&lt;/b&gt;内核需要用到的各种工具函数" style="text;html=1;align=left;verticalAlign=middle;whiteSpace=wrap;rounded=0;fillColor=none;strokeColor=none;dashed=1;fontSize=14;" parent="GKl5spMRml193SK381mk-75" vertex="1">
          <mxGeometry x="100" width="440" height="30" as="geometry" />
        </mxCell>
        <mxCell id="GKl5spMRml193SK381mk-77" value="&lt;font style=&quot;font-size: 18px;&quot;&gt;&lt;b&gt;mm&lt;/b&gt;&lt;/font&gt;" style="shape=umlFrame;whiteSpace=wrap;html=1;pointerEvents=0;recursiveResize=0;container=1;collapsible=0;width=95;fillColor=#dae8fc;strokeColor=#6c8ebf;height=30;" parent="1" vertex="1">
          <mxGeometry x="230" y="800" width="540" height="30" as="geometry" />
        </mxCell>
        <mxCell id="GKl5spMRml193SK381mk-78" value="&lt;b&gt;存放内存管理代码&lt;/b&gt;" style="text;html=1;align=left;verticalAlign=middle;whiteSpace=wrap;rounded=0;fillColor=none;strokeColor=none;dashed=1;fontSize=14;" parent="GKl5spMRml193SK381mk-77" vertex="1">
          <mxGeometry x="100" width="440" height="30" as="geometry" />
        </mxCell>
        <mxCell id="GKl5spMRml193SK381mk-79" value="&lt;font style=&quot;font-size: 18px;&quot;&gt;&lt;b&gt;net&lt;/b&gt;&lt;/font&gt;" style="shape=umlFrame;whiteSpace=wrap;html=1;pointerEvents=0;recursiveResize=0;container=1;collapsible=0;width=95;fillColor=#dae8fc;strokeColor=#6c8ebf;height=30;" parent="1" vertex="1">
          <mxGeometry x="230" y="845" width="540" height="30" as="geometry" />
        </mxCell>
        <mxCell id="GKl5spMRml193SK381mk-80" value="&lt;b&gt;存放网络相关代码&lt;/b&gt;" style="text;html=1;align=left;verticalAlign=middle;whiteSpace=wrap;rounded=0;fillColor=none;strokeColor=none;dashed=1;fontSize=14;" parent="GKl5spMRml193SK381mk-79" vertex="1">
          <mxGeometry x="100" width="440" height="30" as="geometry" />
        </mxCell>
        <mxCell id="GKl5spMRml193SK381mk-81" value="&lt;font style=&quot;font-size: 18px;&quot;&gt;&lt;b&gt;samples&lt;/b&gt;&lt;/font&gt;" style="shape=umlFrame;whiteSpace=wrap;html=1;pointerEvents=0;recursiveResize=0;container=1;collapsible=0;width=95;fillColor=#dae8fc;strokeColor=#6c8ebf;height=30;" parent="1" vertex="1">
          <mxGeometry x="230" y="890" width="540" height="30" as="geometry" />
        </mxCell>
        <mxCell id="GKl5spMRml193SK381mk-82" value="&lt;b&gt;存放一些内核编程示例&lt;/b&gt;" style="text;html=1;align=left;verticalAlign=middle;whiteSpace=wrap;rounded=0;fillColor=none;strokeColor=none;dashed=1;fontSize=14;" parent="GKl5spMRml193SK381mk-81" vertex="1">
          <mxGeometry x="100" width="440" height="30" as="geometry" />
        </mxCell>
        <mxCell id="GKl5spMRml193SK381mk-83" value="&lt;font style=&quot;font-size: 18px;&quot;&gt;&lt;b&gt;scripts&lt;/b&gt;&lt;/font&gt;" style="shape=umlFrame;whiteSpace=wrap;html=1;pointerEvents=0;recursiveResize=0;container=1;collapsible=0;width=95;fillColor=#dae8fc;strokeColor=#6c8ebf;height=30;" parent="1" vertex="1">
          <mxGeometry x="230" y="935" width="540" height="30" as="geometry" />
        </mxCell>
        <mxCell id="GKl5spMRml193SK381mk-84" value="&lt;b&gt;存放一些脚本文件：&lt;/b&gt;编译和构建用的脚本工具" style="text;html=1;align=left;verticalAlign=middle;whiteSpace=wrap;rounded=0;fillColor=none;strokeColor=none;dashed=1;fontSize=14;" parent="GKl5spMRml193SK381mk-83" vertex="1">
          <mxGeometry x="100" width="440" height="30" as="geometry" />
        </mxCell>
        <mxCell id="GKl5spMRml193SK381mk-85" value="&lt;font style=&quot;font-size: 18px;&quot;&gt;&lt;b&gt;security&lt;/b&gt;&lt;/font&gt;" style="shape=umlFrame;whiteSpace=wrap;html=1;pointerEvents=0;recursiveResize=0;container=1;collapsible=0;width=95;fillColor=#dae8fc;strokeColor=#6c8ebf;height=30;" parent="1" vertex="1">
          <mxGeometry x="230" y="980" width="540" height="30" as="geometry" />
        </mxCell>
        <mxCell id="GKl5spMRml193SK381mk-86" value="&lt;b&gt;存放系统安全性相关代码&lt;/b&gt;" style="text;html=1;align=left;verticalAlign=middle;whiteSpace=wrap;rounded=0;fillColor=none;strokeColor=none;dashed=1;fontSize=14;" parent="GKl5spMRml193SK381mk-85" vertex="1">
          <mxGeometry x="100" width="440" height="30" as="geometry" />
        </mxCell>
        <mxCell id="GKl5spMRml193SK381mk-87" value="&lt;font style=&quot;font-size: 18px;&quot;&gt;&lt;b&gt;sound&lt;/b&gt;&lt;/font&gt;" style="shape=umlFrame;whiteSpace=wrap;html=1;pointerEvents=0;recursiveResize=0;container=1;collapsible=0;width=95;fillColor=#dae8fc;strokeColor=#6c8ebf;height=30;" parent="1" vertex="1">
          <mxGeometry x="230" y="1025" width="540" height="30" as="geometry" />
        </mxCell>
        <mxCell id="GKl5spMRml193SK381mk-88" value="&lt;b&gt;存放声音、声卡相关驱动&lt;/b&gt;" style="text;html=1;align=left;verticalAlign=middle;whiteSpace=wrap;rounded=0;fillColor=none;strokeColor=none;dashed=1;fontSize=14;" parent="GKl5spMRml193SK381mk-87" vertex="1">
          <mxGeometry x="100" width="440" height="30" as="geometry" />
        </mxCell>
        <mxCell id="GKl5spMRml193SK381mk-89" value="&lt;font style=&quot;font-size: 18px;&quot;&gt;&lt;b&gt;tools&lt;/b&gt;&lt;/font&gt;" style="shape=umlFrame;whiteSpace=wrap;html=1;pointerEvents=0;recursiveResize=0;container=1;collapsible=0;width=95;fillColor=#dae8fc;strokeColor=#6c8ebf;height=30;" parent="1" vertex="1">
          <mxGeometry x="230" y="1070" width="540" height="30" as="geometry" />
        </mxCell>
        <mxCell id="GKl5spMRml193SK381mk-90" value="&lt;b&gt;一些常用工具：&lt;/b&gt;性能分析、测试等辅助工具" style="text;html=1;align=left;verticalAlign=middle;whiteSpace=wrap;rounded=0;fillColor=none;strokeColor=none;dashed=1;fontSize=14;" parent="GKl5spMRml193SK381mk-89" vertex="1">
          <mxGeometry x="100" width="440" height="30" as="geometry" />
        </mxCell>
        <mxCell id="GKl5spMRml193SK381mk-91" value="&lt;font style=&quot;font-size: 18px;&quot;&gt;&lt;b&gt;usr&lt;/b&gt;&lt;/font&gt;" style="shape=umlFrame;whiteSpace=wrap;html=1;pointerEvents=0;recursiveResize=0;container=1;collapsible=0;width=95;fillColor=#dae8fc;strokeColor=#6c8ebf;height=30;" parent="1" vertex="1">
          <mxGeometry x="230" y="1115" width="540" height="30" as="geometry" />
        </mxCell>
        <mxCell id="GKl5spMRml193SK381mk-92" value="&lt;b&gt;用于生成initramfs的代码：&lt;/b&gt;系统启动时的临时文件系统" style="text;html=1;align=left;verticalAlign=middle;whiteSpace=wrap;rounded=0;fillColor=none;strokeColor=none;dashed=1;fontSize=14;" parent="GKl5spMRml193SK381mk-91" vertex="1">
          <mxGeometry x="100" width="440" height="30" as="geometry" />
        </mxCell>
        <mxCell id="GKl5spMRml193SK381mk-93" value="&lt;font style=&quot;font-size: 18px;&quot;&gt;&lt;b&gt;virt&lt;/b&gt;&lt;/font&gt;" style="shape=umlFrame;whiteSpace=wrap;html=1;pointerEvents=0;recursiveResize=0;container=1;collapsible=0;width=95;fillColor=#dae8fc;strokeColor=#6c8ebf;height=30;" parent="1" vertex="1">
          <mxGeometry x="230" y="1160" width="540" height="30" as="geometry" />
        </mxCell>
        <mxCell id="GKl5spMRml193SK381mk-94" value="&lt;b&gt;提供虚拟机技术支持&lt;/b&gt;" style="text;html=1;align=left;verticalAlign=middle;whiteSpace=wrap;rounded=0;fillColor=none;strokeColor=none;dashed=1;fontSize=14;" parent="GKl5spMRml193SK381mk-93" vertex="1">
          <mxGeometry x="100" width="440" height="30" as="geometry" />
        </mxCell>
        <mxCell id="GKl5spMRml193SK381mk-101" value="" style="shape=curlyBracket;whiteSpace=wrap;html=1;rounded=1;labelPosition=left;verticalLabelPosition=middle;align=right;verticalAlign=middle;" parent="1" vertex="1">
          <mxGeometry x="200" y="270" width="30" height="910" as="geometry" />
        </mxCell>
        <mxCell id="GKl5spMRml193SK381mk-102" value="&lt;font style=&quot;font-size: 30px;&quot;&gt;🌻Make By Dakkk&lt;/font&gt;" style="html=1;shadow=0;dashed=0;shape=mxgraph.bootstrap.rrect;rSize=5;strokeColor=#1CA5B8;strokeWidth=1;fillColor=none;fontColor=#1CA5B8;whiteSpace=wrap;align=center;verticalAlign=middle;spacingLeft=0;fontStyle=1;fontSize=16;spacing=5;" parent="1" vertex="1">
          <mxGeometry x="44.16" y="575" width="160" height="70.39" as="geometry" />
        </mxCell>
      </root>
    </mxGraphModel>
  </diagram>
</mxfile>
